<?xml version="1.0" encoding="UTF-8" standalone="no"?>
<!-- Uploaded to: SVG Repo, www.svgrepo.com, Generator: SVG Repo Mixer Tools -->

<svg
   fill="#000000"
   height="503.37186"
   width="800"
   version="1.1"
   id="Layer_1"
   viewBox="0 0 512 322.15799"
   xml:space="preserve"
   sodipodi:docname="wind-svgrepo-com.svg"
   xmlns:inkscape="http://www.inkscape.org/namespaces/inkscape"
   xmlns:sodipodi="http://sodipodi.sourceforge.net/DTD/sodipodi-0.dtd"
   xmlns="http://www.w3.org/2000/svg"
   xmlns:svg="http://www.w3.org/2000/svg"><defs
   id="defs176" /><sodipodi:namedview
   id="namedview174"
   pagecolor="#ffffff"
   bordercolor="#000000"
   borderopacity="0.25"
   inkscape:showpageshadow="2"
   inkscape:pageopacity="0.0"
   inkscape:pagecheckerboard="0"
   inkscape:deskcolor="#d1d1d1"
   showgrid="false" />
<g
   id="g159"
   style="fill:#d4d4d4;fill-opacity:1"
   transform="translate(0,-94.920998)">
	<g
   id="g157"
   style="fill:#d4d4d4;fill-opacity:1">
		<path
   d="m 287.64,94.921 c -31.721,0 -57.528,25.807 -57.528,57.528 h 34.517 c 0,-12.688 10.323,-23.011 23.011,-23.011 12.688,0 23.011,10.323 23.011,23.011 0,12.688 -10.323,23.011 -23.011,23.011 H 46.022 v 34.517 H 287.64 c 31.721,0 57.528,-25.807 57.528,-57.528 10e-4,-31.721 -25.807,-57.528 -57.528,-57.528 z"
   id="path155"
   style="fill:#d4d4d4;fill-opacity:1" />
	</g>
</g>
<g
   id="g165"
   style="fill:#d4d4d4;fill-opacity:1"
   transform="translate(0,-94.920998)">
	<g
   id="g163"
   style="fill:#d4d4d4;fill-opacity:1">
		<path
   d="m 431.461,106.427 c -34.893,0 -63.281,28.388 -63.281,63.281 0,25.377 20.646,46.022 46.022,46.022 25.377,0 46.022,-20.646 46.022,-46.022 h -34.517 c 0,6.344 -5.161,11.506 -11.506,11.506 -6.344,0 -11.506,-5.161 -11.506,-11.506 0,-15.861 12.904,-28.764 28.764,-28.764 25.377,0 46.022,20.646 46.022,46.022 0,25.377 -20.646,46.022 -46.022,46.022 H 0 v 34.517 h 431.461 c 44.409,0 80.539,-36.13 80.539,-80.539 0,-44.409 -36.13,-80.539 -80.539,-80.539 z"
   id="path161"
   style="fill:#d4d4d4;fill-opacity:1" />
	</g>
</g>
<g
   id="g171"
   style="fill:#d4d4d4;fill-opacity:1"
   transform="translate(0,-94.920998)">
	<g
   id="g169"
   style="fill:#d4d4d4;fill-opacity:1">
		<path
   d="M 345.169,290.517 H 46.022 v 34.517 h 299.146 c 15.861,0 28.764,12.904 28.764,28.764 0,15.861 -12.904,28.764 -28.764,28.764 -15.86,0 -28.764,-12.904 -28.764,-28.764 h -34.517 c 0,34.893 28.388,63.281 63.281,63.281 34.893,0 63.281,-28.388 63.281,-63.281 0,-34.893 -28.387,-63.281 -63.28,-63.281 z"
   id="path167"
   style="fill:#d4d4d4;fill-opacity:1" />
	</g>
</g>
</svg>
