<?xml version="1.0" encoding="UTF-8" standalone="no"?>
<!-- Uploaded to: SVG Repo, www.svgrepo.com, Generator: SVG Repo Mixer Tools -->

<svg
   fill="#000000"
   width="596.42566"
   height="596.28735"
   viewBox="0 0 17.89277 17.888621"
   version="1.1"
   id="svg3449"
   xmlns="http://www.w3.org/2000/svg"
   xmlns:svg="http://www.w3.org/2000/svg">
  <defs
     id="defs3453" />
  <g
     id="Coffee_Bean"
     data-name="Coffee Bean"
     style="fill:#d4d4d4;fill-opacity:1"
     transform="translate(-3.0370326,-3.0423636)">
    <path
       d="m 19.151,4.868 a 6.744,6.744 0 0 0 -5.96,-1.69 12.009,12.009 0 0 0 -6.54,3.47 11.988,11.988 0 0 0 -3.48,6.55 6.744,6.744 0 0 0 1.69,5.95 6.406,6.406 0 0 0 4.63,1.78 11.511,11.511 0 0 0 7.87,-3.56 c 3.939,-3.94 4.739,-9.55 1.79,-12.5 z m -14.99,8.48 a 11.041,11.041 0 0 1 3.19,-5.99 10.976,10.976 0 0 1 5.99,-3.19 8.016,8.016 0 0 1 1.18,-0.09 5.412,5.412 0 0 1 3.92,1.49 0.689,0.689 0 0 1 0.11,0.13 6.542,6.542 0 0 1 -2.12,1.23 7.666,7.666 0 0 0 -2.96,1.93 7.666,7.666 0 0 0 -1.93,2.96 6.589,6.589 0 0 1 -1.71,2.63 6.7,6.7 0 0 1 -2.63,1.71 7.478,7.478 0 0 0 -2.35,1.36 6.18,6.18 0 0 1 -0.69,-4.17 z m 12.49,3.31 c -3.55,3.55 -8.52,4.35 -11.08,1.79 a 1.538,1.538 0 0 1 -0.12,-0.13 6.677,6.677 0 0 1 2.13,-1.23 7.862,7.862 0 0 0 2.96,-1.93 7.738,7.738 0 0 0 1.93,-2.96 6.589,6.589 0 0 1 1.71,-2.63 6.589,6.589 0 0 1 2.63,-1.71 7.6,7.6 0 0 0 2.34,-1.37 c 1.64,2.712 0.67,7 -2.5,10.17 z"
       id="path3446"
       style="fill:#d4d4d4;fill-opacity:1" />
  </g>
</svg>
