<?xml version="1.0" encoding="UTF-8" standalone="no"?>
<!-- Created with Inkscape (http://www.inkscape.org/) -->

<svg
   version="1.1"
   id="svg3248"
   width="71.08667"
   height="71.085327"
   viewBox="0 0 71.086669 71.085326"
   sodipodi:docname="Cogen_Icons_2.ai"
   xmlns:inkscape="http://www.inkscape.org/namespaces/inkscape"
   xmlns:sodipodi="http://sodipodi.sourceforge.net/DTD/sodipodi-0.dtd"
   xmlns="http://www.w3.org/2000/svg"
   xmlns:svg="http://www.w3.org/2000/svg">
  <defs
     id="defs3252">
    <clipPath
       clipPathUnits="userSpaceOnUse"
       id="clipPath6734">
      <g
         id="g6738">
        <path
           d="M 0,841.89 H 595.276 V 0 H 0 Z"
           id="path6736" />
      </g>
    </clipPath>
    <clipPath
       clipPathUnits="userSpaceOnUse"
       id="clipPath6740">
      <g
         id="g6744">
        <path
           d="M 0,841.89 H 595.276 V 0 H 0 Z"
           id="path6742" />
      </g>
    </clipPath>
    <clipPath
       clipPathUnits="userSpaceOnUse"
       id="clipPath6746">
      <g
         id="g6750">
        <path
           d="M 0,841.89 H 595.276 V 0 H 0 Z"
           id="path6748" />
      </g>
    </clipPath>
    <clipPath
       clipPathUnits="userSpaceOnUse"
       id="clipPath6752">
      <g
         id="g6756">
        <path
           d="M 0,841.89 H 595.276 V 0 H 0 Z"
           id="path6754" />
      </g>
    </clipPath>
    <clipPath
       clipPathUnits="userSpaceOnUse"
       id="clipPath6758">
      <g
         id="g6762"
         transform="translate(-131.9009,-128.8712)">
        <path
           d="M 0,841.89 H 595.276 V 0 H 0 Z"
           id="path6760" />
      </g>
    </clipPath>
    <clipPath
       clipPathUnits="userSpaceOnUse"
       id="clipPath6764">
      <g
         id="g6768"
         transform="translate(-160.3433,-157.3127)">
        <path
           d="M 0,841.89 H 595.276 V 0 H 0 Z"
           id="path6766" />
      </g>
    </clipPath>
    <clipPath
       clipPathUnits="userSpaceOnUse"
       id="clipPath6770">
      <g
         id="g6774"
         transform="translate(-131.082,-137.1076)">
        <path
           d="M 0,841.89 H 595.276 V 0 H 0 Z"
           id="path6772" />
      </g>
    </clipPath>
    <clipPath
       clipPathUnits="userSpaceOnUse"
       id="clipPath6776">
      <g
         id="g6780"
         transform="translate(-152.3345,-128.8712)">
        <path
           d="M 0,841.89 H 595.276 V 0 H 0 Z"
           id="path6778" />
      </g>
    </clipPath>
    <clipPath
       clipPathUnits="userSpaceOnUse"
       id="clipPath6782">
      <g
         id="g6786"
         transform="translate(-131.9009,-157.3127)">
        <path
           d="M 0,841.89 H 595.276 V 0 H 0 Z"
           id="path6784" />
      </g>
    </clipPath>
    <clipPath
       clipPathUnits="userSpaceOnUse"
       id="clipPath6788">
      <g
         id="g6792"
         transform="translate(-149.5742,-137.1076)">
        <path
           d="M 0,841.89 H 595.276 V 0 H 0 Z"
           id="path6790" />
      </g>
    </clipPath>
    <clipPath
       clipPathUnits="userSpaceOnUse"
       id="clipPath6794">
      <g
         id="g6798">
        <path
           d="M 0,841.89 H 595.276 V 0 H 0 Z"
           id="path6796" />
      </g>
    </clipPath>
    <clipPath
       clipPathUnits="userSpaceOnUse"
       id="clipPath6800">
      <g
         id="g6804">
        <path
           d="M 0,841.89 H 595.276 V 0 H 0 Z"
           id="path6802" />
      </g>
    </clipPath>
  </defs>
  <sodipodi:namedview
     id="namedview3250"
     pagecolor="#ffffff"
     bordercolor="#000000"
     borderopacity="0.25"
     inkscape:showpageshadow="2"
     inkscape:pageopacity="0.0"
     inkscape:pagecheckerboard="0"
     inkscape:deskcolor="#d1d1d1"
     showgrid="false" />
  <g
     id="g3256"
     inkscape:groupmode="layer"
     inkscape:label="Page 1"
     transform="matrix(1.3333333,0,0,-1.3333333,-151.56133,234.05734)">
    <path
       d="m 142.118,122.229 h -3.58 v 53.314 h 3.58 z"
       style="fill:#d4d4d4;fill-opacity:1;fill-rule:nonzero;stroke:none"
       id="path3368"
       clip-path="url(#clipPath6800)" />
    <path
       d="m 166.986,147.096 h -53.315 v 3.58 h 53.315 z"
       style="fill:#d4d4d4;fill-opacity:1;fill-rule:nonzero;stroke:none"
       id="path3370"
       clip-path="url(#clipPath6794)" />
    <g
       id="g3372"
       transform="translate(149.5742,137.1076)"
       clip-path="url(#clipPath6788)"
       style="fill:#d4d4d4;fill-opacity:1">
      <path
         d="m 0,0 -21.023,21.023 2.531,2.532 L 2.531,2.531 Z"
         style="fill:#d4d4d4;fill-opacity:1;fill-rule:nonzero;stroke:none"
         id="path3374" />
    </g>
    <g
       id="g3376"
       transform="translate(131.9009,157.3127)"
       clip-path="url(#clipPath6782)"
       style="fill:#d4d4d4;fill-opacity:1">
      <path
         d="m 0,0 h -11.588 v 3.58 h 8.008 v 8.008 H 0 Z"
         style="fill:#d4d4d4;fill-opacity:1;fill-rule:nonzero;stroke:none"
         id="path3378" />
    </g>
    <g
       id="g3380"
       transform="translate(152.3345,128.8712)"
       clip-path="url(#clipPath6776)"
       style="fill:#d4d4d4;fill-opacity:1">
      <path
         d="M 0,0 H -3.58 V 11.587 H 8.009 V 8.007 H 0 Z"
         style="fill:#d4d4d4;fill-opacity:1;fill-rule:nonzero;stroke:none"
         id="path3382" />
    </g>
    <g
       id="g3384"
       transform="translate(131.082,137.1076)"
       clip-path="url(#clipPath6770)"
       style="fill:#d4d4d4;fill-opacity:1">
      <path
         d="m 0,0 -2.531,2.531 21.023,21.024 2.531,-2.532 z"
         style="fill:#d4d4d4;fill-opacity:1;fill-rule:nonzero;stroke:none"
         id="path3386" />
    </g>
    <g
       id="g3388"
       transform="translate(160.3433,157.3127)"
       clip-path="url(#clipPath6764)"
       style="fill:#d4d4d4;fill-opacity:1">
      <path
         d="m 0,0 h -11.589 v 11.588 h 3.58 V 3.58 H 0 Z"
         style="fill:#d4d4d4;fill-opacity:1;fill-rule:nonzero;stroke:none"
         id="path3390" />
    </g>
    <g
       id="g3392"
       transform="translate(131.9009,128.8712)"
       clip-path="url(#clipPath6758)"
       style="fill:#d4d4d4;fill-opacity:1">
      <path
         d="m 0,0 h -3.58 v 8.007 h -8.008 v 3.58 H 0 Z"
         style="fill:#d4d4d4;fill-opacity:1;fill-rule:nonzero;stroke:none"
         id="path3394" />
    </g>
    <path
       d="m 162.133,142.615 h -3.58 v 12.541 h 3.58 z"
       style="fill:#d4d4d4;fill-opacity:1;fill-rule:nonzero;stroke:none"
       id="path3396"
       clip-path="url(#clipPath6752)" />
    <path
       d="m 122.103,142.615 h -3.58 v 12.541 h 3.58 z"
       style="fill:#d4d4d4;fill-opacity:1;fill-rule:nonzero;stroke:none"
       id="path3398"
       clip-path="url(#clipPath6746)" />
    <path
       d="m 146.599,167.111 h -12.542 v 3.58 h 12.542 z"
       style="fill:#d4d4d4;fill-opacity:1;fill-rule:nonzero;stroke:none"
       id="path3400"
       clip-path="url(#clipPath6740)" />
    <path
       d="m 146.599,127.081 h -12.542 v 3.58 h 12.542 z"
       style="fill:#d4d4d4;fill-opacity:1;fill-rule:nonzero;stroke:none"
       id="path3402"
       clip-path="url(#clipPath6734)" />
    <text
       xml:space="preserve"
       transform="matrix(1,0,0,-1,262.6855,246.8281)"
       style="font-variant:normal;font-weight:normal;font-stretch:normal;font-size:12px;font-family:'Myriad Pro';-inkscape-font-specification:MyriadPro-Regular;writing-mode:lr-tb;fill:#1d1d1b;fill-opacity:1;fill-rule:nonzero;stroke:none"
       id="text3444"><tspan
         x="0 6.552 12.336 19.164 24.948 31.284 37.068001"
         y="0"
         sodipodi:role="line"
         id="tspan3436">Барабан</tspan><tspan
         x="168.744 175.284 181.87199 186.252 192.84 199.392 205.368"
         y="4.8959999"
         sodipodi:role="line"
         id="tspan3438">Вогонь </tspan><tspan
         x="-144.15601 -137.79601 -131.14799 -123.48 -116.892 -111.588 -105"
         y="0"
         sodipodi:role="line"
         id="tspan3440">димосос</tspan><tspan
         x="-2.6400001 2.5320001 10.236 13.044 21.851999 27.504 33.504002 39.119999 153.53999 159.444 165.996 171.612 177.79201 184.38 190.12801 192.672 197.2092 204.0372 209.8212 216.14639 221.6904 227.06641 229.8744 -150.79201 -144.36 -138.972 -132.336 -126.252 -119.748 -113.292 -105.36 -99.348 -92.795998 -86.195999"
         y="149.892"
         sodipodi:role="line"
         id="tspan3442">змішувачЗначок градусівохолодження</tspan></text>
  </g>
</svg>
