<?xml version="1.0" encoding="UTF-8" standalone="no"?>
<!-- Uploaded to: SVG Repo, www.svgrepo.com, Generator: SVG Repo Mixer Tools -->

<svg
   fill="#000000"
   width="666.66663"
   height="666.66797"
   viewBox="0 0 19.999999 20.000039"
   version="1.1"
   id="svg1669"
   sodipodi:docname="fan-circled-svgrepo-com.svg"
   xmlns:inkscape="http://www.inkscape.org/namespaces/inkscape"
   xmlns:sodipodi="http://sodipodi.sourceforge.net/DTD/sodipodi-0.dtd"
   xmlns="http://www.w3.org/2000/svg"
   xmlns:svg="http://www.w3.org/2000/svg">
  <defs
     id="defs1673" />
  <sodipodi:namedview
     id="namedview1671"
     pagecolor="#ffffff"
     bordercolor="#000000"
     borderopacity="0.25"
     inkscape:showpageshadow="2"
     inkscape:pageopacity="0.0"
     inkscape:pagecheckerboard="0"
     inkscape:deskcolor="#d1d1d1"
     showgrid="false" />
  <path
     fill-rule="evenodd"
     clip-rule="evenodd"
     d="m 10,1.4814802 c -4.7046499,0 -8.5185199,3.81387 -8.5185199,8.5185598 0,4.7046 3.81387,8.5185 8.5185199,8.5185 4.7046,0 8.5185,-3.8139 8.5185,-8.5185 C 18.5185,5.2953502 14.7046,1.4814802 10,1.4814802 Z M 1.1920929e-7,10.00004 C 1.1920929e-7,4.4771502 4.4771501,1.5693665e-7 10,1.5693665e-7 15.5228,1.5693665e-7 20,4.4771502 20,10.00004 c 0,5.5228 -4.4772,10 -10,10 -5.5228499,0 -9.99999988079071,-4.4772 -9.99999988079071,-10 z"
     id="path1665"
     style="fill:#d4d4d4;fill-opacity:1" />
  <path
     d="m 10,9.2999402 c -0.1383999,0 -0.2737999,0.0411 -0.3888999,0.118 -0.1151,0.0769 -0.2048,0.1862 -0.2578,0.3141 -0.053,0.1279 -0.0669,0.2686998 -0.0399,0.4044998 0.0271,0.1358 0.0937,0.2605 0.1916,0.3584 0.0979,0.0979 0.2227,0.1646 0.3584,0.1916 0.1358,0.027 0.2765999,0.0131 0.4044999,-0.0399 0.1279,-0.053 0.2372,-0.1427 0.3141,-0.2578 0.0769,-0.1151 0.118,-0.2504 0.118,-0.3888998 0,-0.1856 -0.0738,-0.3637 -0.205,-0.495 -0.1313,-0.1312 -0.3093,-0.205 -0.495,-0.205 z m 0.35,-6.29998 c 3.15,0 3.22,2.499 1.561,3.325 -0.3082,0.18276 -0.5707,0.43354 -0.7672,0.7332 -0.1965,0.29965 -0.322,0.64025 -0.3668,0.99578 0.3347,0.1389 0.6303,0.3576 0.861,0.637 C 14.2,7.2909602 17,7.8439502 17,10.34994 c 0,3.15 -2.506,3.22 -3.325,1.561 -0.1881,-0.3081 -0.443,-0.57 -0.7459,-0.7662 -0.3029,-0.1963 -0.6461,-0.322 -1.0041,-0.3678 -0.1406,0.3338 -0.359,0.629 -0.637,0.861 1.4,2.583 0.84,5.362 -1.6659999,5.362 -3.122,0 -3.199,-2.506 -1.54,-3.332 0.3032,-0.1852 0.562,-0.4348 0.758,-0.7312 0.196,-0.2964 0.3244,-0.6322 0.376,-0.9838 -0.3431,-0.1342 -0.6449,-0.3563 -0.875,-0.644 -2.583,1.386 -5.341,0.84 -5.341,-1.6589998 0,-3.14998 2.478,-3.22698 3.304,-1.568 0.18545,0.3068 0.43799,0.5676 0.73865,0.7628 0.30067,0.1951 0.64166,0.3197 0.99735,0.3642 0.1348,-0.3369 0.3571,-0.6318 0.644,-0.854 -1.393,-2.55499 -0.84,-5.35498 1.6519999,-5.35498 z"
     id="path1667"
     style="fill:#d4d4d4;fill-opacity:1" />
</svg>
