<?xml version="1.0" encoding="UTF-8" standalone="no"?>
<!-- Created with Inkscape (http://www.inkscape.org/) -->

<svg
   version="1.1"
   id="svg3248"
   width="56.372009"
   height="77.247986"
   viewBox="0 0 56.372009 77.247984"
   sodipodi:docname="Cogen_Icons_2.ai"
   xmlns:inkscape="http://www.inkscape.org/namespaces/inkscape"
   xmlns:sodipodi="http://sodipodi.sourceforge.net/DTD/sodipodi-0.dtd"
   xmlns="http://www.w3.org/2000/svg"
   xmlns:svg="http://www.w3.org/2000/svg">
  <defs
     id="defs3252">
    <clipPath
       clipPathUnits="userSpaceOnUse"
       id="clipPath6704">
      <g
         id="g6708"
         transform="translate(-503.4365,-287.5558)">
        <path
           d="M 0,841.89 H 595.276 V 0 H 0 Z"
           id="path6706" />
      </g>
    </clipPath>
    <clipPath
       clipPathUnits="userSpaceOnUse"
       id="clipPath6710">
      <g
         id="g6714"
         transform="translate(-499.7637,-274.9855)">
        <path
           d="M 0,841.89 H 595.276 V 0 H 0 Z"
           id="path6712" />
      </g>
    </clipPath>
    <clipPath
       clipPathUnits="userSpaceOnUse"
       id="clipPath6716">
      <g
         id="g6720"
         transform="translate(-485.2285,-302.4777)">
        <path
           d="M 0,841.89 H 595.276 V 0 H 0 Z"
           id="path6718" />
      </g>
    </clipPath>
  </defs>
  <sodipodi:namedview
     id="namedview3250"
     pagecolor="#ffffff"
     bordercolor="#000000"
     borderopacity="0.25"
     inkscape:showpageshadow="2"
     inkscape:pageopacity="0.0"
     inkscape:pagecheckerboard="0"
     inkscape:deskcolor="#d1d1d1"
     showgrid="false" />
  <g
     id="g3256"
     inkscape:groupmode="layer"
     inkscape:label="Page 1"
     transform="matrix(1.3333333,0,0,-1.3333333,-635.46198,434.97958)">
    <g
       id="g3412"
       transform="translate(485.2285,302.4777)"
       clip-path="url(#clipPath6716)"
       style="fill:#d4d4d4;fill-opacity:1">
      <path
         d="m 0,0 c -2.93,-4.437 -5.052,-8.305 -5.052,-13.038 0,-9.683 7.878,-17.561 17.561,-17.561 9.674,0 17.551,7.879 17.559,17.562 0.007,8.116 -3.634,12.168 -7.491,16.455 -3.395,3.779 -6.891,7.667 -7.105,14.129 C 12.608,14.961 10.656,10.668 10.217,7.798 9.969,6.176 9.948,4.37 9.925,2.624 9.871,-1.777 9.805,-7.255 4.59,-7.255 1.638,-7.255 0.54,-3.621 0,0 m 12.509,-34.179 c -11.657,0 -21.141,9.484 -21.141,21.141 0,6.708 3.414,11.745 7.368,17.576 L 2.313,9.849 2.996,5.288 C 3.045,4.959 3.096,4.451 3.157,3.83 3.678,-1.44 4.302,-3.178 4.76,-3.668 c 1.208,0.108 1.526,1.46 1.586,6.337 0.024,1.868 0.047,3.802 0.333,5.67 0.685,4.485 4.27,11.868 10.093,14.244 l 2.877,1.174 -0.427,-3.077 C 18.239,13.599 21.483,9.99 25.24,5.812 29.186,1.424 33.656,-3.549 33.647,-13.04 33.64,-24.695 24.156,-34.179 12.509,-34.179"
         style="fill:#d4d4d4;fill-opacity:1;fill-rule:nonzero;stroke:none"
         id="path3414" />
    </g>
    <g
       id="g3416"
       transform="translate(499.7637,274.9855)"
       clip-path="url(#clipPath6710)"
       style="fill:#d4d4d4;fill-opacity:1">
      <path
         d="m 0,0 v 3.58 c 4.955,0 8.988,4.033 8.988,8.99 h 3.58 C 12.568,5.64 6.931,0 0,0"
         style="fill:#d4d4d4;fill-opacity:1;fill-rule:nonzero;stroke:none"
         id="path3418" />
    </g>
    <g
       id="g3420"
       transform="translate(503.4365,287.5558)"
       clip-path="url(#clipPath6704)"
       style="fill:#d4d4d4;fill-opacity:1">
      <path
         d="m 0,0 h -3.674 v -1.506 -4.211 l 0.928,0.507 c 1.748,1.054 3.229,2.534 4.283,4.282 C 1.765,-0.564 2.025,0 2.025,0 Z"
         style="fill:#d4d4d4;fill-opacity:1;fill-rule:nonzero;stroke:none"
         id="path3422" />
    </g>
  </g>
</svg>
