<?xml version="1.0" encoding="UTF-8" standalone="no"?>
<!-- Uploaded to: SVG Repo, www.svgrepo.com, Generator: SVG Repo Mixer Tools -->

<svg
   fill="#000000"
   width="737.47498"
   height="737.40002"
   viewBox="0 0 29.498999 29.496001"
   version="1.1"
   id="svg5933"
   sodipodi:docname="gear-svgrepo-com.svg"
   xmlns:inkscape="http://www.inkscape.org/namespaces/inkscape"
   xmlns:sodipodi="http://sodipodi.sourceforge.net/DTD/sodipodi-0.dtd"
   xmlns="http://www.w3.org/2000/svg"
   xmlns:svg="http://www.w3.org/2000/svg">
  <defs
     id="defs5937" />
  <sodipodi:namedview
     id="namedview5935"
     pagecolor="#ffffff"
     bordercolor="#000000"
     borderopacity="0.25"
     inkscape:showpageshadow="2"
     inkscape:pageopacity="0.0"
     inkscape:pagecheckerboard="0"
     inkscape:deskcolor="#d1d1d1"
     showgrid="false" />
  <title
     id="title5929">gear</title>
  <path
     d="M 27.75,11.007 H 25.87 C 25.672,10.422 25.465,9.935 25.227,9.466 l 0.031,0.067 1.338,-1.324 c 0.35,-0.3 0.57,-0.742 0.57,-1.236 0,-0.406 -0.149,-0.778 -0.396,-1.063 L 26.772,5.912 23.594,2.734 C 23.311,2.488 22.94,2.339 22.533,2.339 c -0.494,0 -0.937,0.221 -1.234,0.57 l -0.002,0.002 -1.332,1.33 C 19.563,4.035 19.077,3.828 18.575,3.655 L 18.493,3.63 18.502,1.75 C 18.505,1.71 18.507,1.664 18.507,1.617 18.507,0.76300005 17.847,0.06300005 17.009,4.6730041e-8 H 17.004 12.508 C 11.664,0.06300005 11.003,0.76300005 11.003,1.617 c 0,0.047 0.002,0.093 0.006,0.139 V 1.75 3.629 C 10.424,3.827 9.938,4.033 9.469,4.27 L 9.536,4.239 8.212,2.903 C 7.913,2.551 7.47,2.33 6.976,2.33 6.569,2.33 6.198,2.48 5.913,2.727 L 5.915,2.725 2.736,5.904 C 2.49,6.187 2.34,6.559 2.34,6.965 c 0,0.494 0.221,0.937 0.57,1.234 L 2.912,8.201 4.241,9.53 C 4.034,9.933 3.827,10.421 3.654,10.925 L 3.63,11.007 1.75,10.998 C 1.71,10.995 1.664,10.993 1.617,10.993 0.763,10.993 0.063,11.654 0,12.492 v 0.005 4.495 c 0.062,0.844 0.763,1.505 1.617,1.505 0.047,0 0.093,-0.002 0.139,-0.006 H 1.75 3.63 c 0.198,0.585 0.404,1.072 0.642,1.541 l -0.03,-0.066 -1.335,1.32 c -0.351,0.3 -0.572,0.744 -0.572,1.239 0,0.407 0.149,0.779 0.396,1.064 l -0.002,-0.002 3.179,3.178 c 0.249,0.246 0.591,0.399 0.97,0.399 0.007,0 0.014,0 0.021,0 H 6.898 c 0.515,-0.013 0.977,-0.231 1.308,-0.576 l 0.001,-0.001 1.33,-1.33 c 0.403,0.207 0.891,0.414 1.395,0.587 l 0.082,0.025 -0.009,1.878 C 11.002,27.787 11,27.833 11,27.879 c 0,0.854 0.661,1.555 1.499,1.617 H 12.504 17 c 0.843,-0.064 1.503,-0.763 1.503,-1.617 0,-0.047 -0.002,-0.093 -0.006,-0.139 v 0.006 -1.881 c 0.585,-0.198 1.073,-0.405 1.543,-0.643 l -0.067,0.031 1.321,1.333 c 0.332,0.344 0.793,0.562 1.304,0.574 h 0.002 0.002 c 0.006,0 0.013,0 0.019,0 0.378,0 0.72,-0.151 0.971,-0.395 l 3.177,-3.177 c 0.244,-0.249 0.395,-0.591 0.395,-0.968 0,-0.009 0,-0.017 0,-0.026 v 10e-4 C 27.152,22.082 26.935,21.622 26.592,21.291 L 26.591,21.29 25.26,19.958 c 0.206,-0.401 0.412,-0.887 0.586,-1.389 l 0.025,-0.083 1.879,0.009 c 0.04,0.003 0.086,0.005 0.132,0.005 0.855,0 1.555,-0.661 1.617,-1.5 V 16.995 12.5 c -0.063,-0.844 -0.763,-1.504 -1.618,-1.504 -0.047,0 -0.093,0.002 -0.138,0.006 h 0.006 z m 0.004,5.994 -2.416,-0.012 c -0.02,0 -0.037,0.01 -0.056,0.011 -0.198,0.024 -0.372,0.115 -0.501,0.249 v 0 c -0.055,0.072 -0.103,0.153 -0.141,0.24 l -0.003,0.008 c -0.005,0.014 -0.016,0.024 -0.02,0.039 -0.24,0.844 -0.553,1.579 -0.944,2.264 l 0.026,-0.049 c -0.054,0.1 -0.086,0.218 -0.086,0.344 0,0.001 0,0.003 0,0.004 v 0 c 0,0.016 0.003,0.028 0.004,0.045 0.006,0.187 0.08,0.355 0.199,0.481 v 0 l 0.009,0.023 1.707,1.709 c 0.109,0.109 0.137,0.215 0.176,0.176 l -3.102,3.133 c -0.099,-0.013 -0.186,-0.061 -0.248,-0.13 v 0 l -1.697,-1.713 c -0.008,-0.009 -0.022,-0.005 -0.03,-0.013 -0.121,-0.112 -0.28,-0.183 -0.456,-0.193 h -0.002 c -0.02,-0.003 -0.044,-0.005 -0.068,-0.006 h -0.001 c -0.125,0 -0.243,0.032 -0.345,0.088 l 0.004,-0.002 c -0.636,0.362 -1.373,0.676 -2.146,0.903 l -0.074,0.019 c -0.015,0.004 -0.025,0.015 -0.039,0.02 -0.096,0.042 -0.179,0.092 -0.255,0.149 l 0.003,-0.002 c -0.035,0.034 -0.066,0.071 -0.093,0.11 l -0.002,0.002 c -0.027,0.033 -0.053,0.07 -0.075,0.11 l -0.002,0.004 c -0.033,0.081 -0.059,0.175 -0.073,0.274 l -0.001,0.007 c -0.001,0.016 -0.01,0.031 -0.01,0.047 v 2.412 c 0,0.15 -0.055,0.248 0,0.25 l -4.41,0.023 c -0.052,-0.067 -0.084,-0.153 -0.084,-0.246 0,-0.008 0,-0.016 10e-4,-0.024 v 0.001 l 0.012,-2.412 c 0,-0.017 -0.008,-0.032 -0.01,-0.048 -0.005,-0.053 -0.015,-0.102 -0.03,-0.149 l 0.001,0.005 c -0.012,-0.053 -0.028,-0.1 -0.048,-0.145 l 0.002,0.005 c -0.052,-0.086 -0.109,-0.16 -0.173,-0.227 v 0 c -0.029,-0.024 -0.062,-0.046 -0.096,-0.066 l -0.004,-0.002 c -0.044,-0.03 -0.093,-0.056 -0.146,-0.076 L 12.006,24.639 C 11.992,24.634 11.982,24.623 11.967,24.619 11.12,24.378 10.382,24.065 9.695,23.675 l 0.051,0.026 C 9.647,23.647 9.53,23.615 9.405,23.615 v 0 C 9.383,23.614 9.365,23.619 9.343,23.62 9.163,23.628 9.001,23.7 8.878,23.813 H 8.879 C 8.871,23.821 8.858,23.817 8.85,23.825 L 7.145,25.53 C 7.038,25.637 6.929,25.669 6.967,25.708 L 3.833,22.607 c 0.012,-0.1 0.06,-0.187 0.13,-0.25 v 0 L 5.677,20.662 5.688,20.636 C 5.803,20.513 5.877,20.35 5.885,20.17 V 20.168 C 5.886,20.147 5.89,20.131 5.89,20.11 c 0,-10e-4 0,-0.002 0,-0.003 0,-0.126 -0.032,-0.245 -0.088,-0.348 l 0.002,0.004 C 5.439,19.127 5.125,18.392 4.901,17.618 L 4.883,17.546 C 4.879,17.531 4.867,17.52 4.862,17.505 4.82,17.411 4.772,17.329 4.716,17.255 l 0.002,0.003 C 4.653,17.197 4.582,17.141 4.506,17.093 L 4.5,17.09 C 4.449,17.065 4.391,17.045 4.329,17.033 L 4.324,17.032 C 4.295,17.023 4.259,17.016 4.222,17.011 H 4.218 C 4.198,17.009 4.181,16.999 4.16,16.999 H 1.748 C 1.596,17.001 1.5,16.944 1.498,16.997 L 1.476,12.588 c 0.067,-0.052 0.151,-0.084 0.244,-0.084 0.009,0 0.017,0 0.026,0.001 H 1.745 l 2.416,0.012 C 4.313,12.513 4.453,12.463 4.568,12.381 L 4.566,12.383 C 4.59,12.369 4.61,12.355 4.63,12.34 L 4.628,12.341 C 4.737,12.253 4.819,12.135 4.863,12 L 4.864,11.995 C 4.867,11.985 4.878,11.981 4.881,11.97 5.123,11.123 5.436,10.387 5.827,9.7 L 5.801,9.75 c 0.054,-0.1 0.086,-0.218 0.086,-0.344 0,-0.001 0,-0.001 0,-0.002 v 0 C 5.888,9.385 5.884,9.371 5.883,9.352 5.876,9.168 5.803,9.002 5.686,8.877 v 0 L 5.676,8.853 3.971,7.148 C 3.863,7.038 3.829,6.927 3.795,6.97 L 6.897,3.836 c 0.101,0.008 0.189,0.058 0.248,0.131 l 0.001,10e-4 1.697,1.713 c 0.018,0.018 0.046,0.011 0.065,0.027 0.125,0.121 0.295,0.196 0.483,0.196 0.13,0 0.251,-0.036 0.355,-0.098 L 9.743,5.808 C 10.379,5.444 11.115,5.131 11.888,4.906 L 11.96,4.888 C 11.974,4.884 11.984,4.873 11.998,4.869 12.055,4.848 12.103,4.822 12.149,4.792 L 12.146,4.794 C 12.309,4.704 12.427,4.55 12.467,4.367 L 12.468,4.363 C 12.482,4.32 12.493,4.27 12.498,4.218 V 4.215 c 0.001,-0.016 0.009,-0.03 0.009,-0.046 V 1.757 c 0,-0.151 0.056,-0.249 10e-4,-0.25 l 4.41,-0.023 c 0.052,0.067 0.083,0.152 0.083,0.245 0,0.009 0,0.017 -0.001,0.026 V 1.754 l -0.012,2.412 c 0,0.016 0.008,0.03 0.009,0.047 0.005,0.055 0.015,0.106 0.031,0.155 L 17.027,4.363 c 0.071,0.234 0.243,0.419 0.464,0.506 l 0.005,0.002 c 0.014,0.005 0.025,0.016 0.039,0.02 0.845,0.242 1.58,0.555 2.265,0.945 L 19.75,5.81 c 0.105,0.06 0.231,0.096 0.366,0.096 0,0 0.001,0 0.001,0 v 0 C 20.3,5.898 20.464,5.824 20.588,5.708 v 0 C 20.605,5.693 20.631,5.7 20.647,5.684 l 1.709,-1.705 c 0.105,-0.106 0.213,-0.137 0.176,-0.176 l 3.133,3.102 c -0.012,0.1 -0.059,0.186 -0.129,0.249 v 0 L 23.821,8.851 23.81,8.877 C 23.694,9 23.62,9.164 23.612,9.345 v 0.002 c -10e-4,0.02 -0.005,0.036 -0.005,0.056 0,10e-4 0,0.002 0,0.003 0,0.126 0.032,0.245 0.088,0.348 L 23.693,9.75 c 0.365,0.636 0.679,1.371 0.902,2.144 l 0.018,0.071 c 0.003,0.012 0.016,0.017 0.019,0.028 0.046,0.137 0.127,0.253 0.232,0.339 l 10e-4,10e-4 c 0.019,0.015 0.041,0.03 0.063,0.043 l 0.003,0.002 c 0.112,0.08 0.252,0.13 0.402,0.134 h 0.001 2.412 c 0.152,-0.001 0.248,0.057 0.25,10e-4 l 0.021,4.409 c -0.065,0.053 -0.149,0.085 -0.24,0.085 -0.01,0 -0.019,0 -0.029,-0.001 h 10e-4 z m -13.004,-7 c -2.623,0 -4.75,2.127 -4.75,4.75 0,2.623 2.127,4.75 4.75,4.75 2.623,0 4.75,-2.127 4.75,-4.75 v 0 c -0.003,-2.622 -2.128,-4.747 -4.75,-4.75 z m 0,8 c -1.795,0 -3.25,-1.455 -3.25,-3.25 0,-1.795 1.455,-3.25 3.25,-3.25 1.795,0 3.25,1.455 3.25,3.25 v 0 c -0.002,1.794 -1.456,3.248 -3.25,3.25 z"
     id="path5931"
     style="fill:#d4d4d4;fill-opacity:1" />
</svg>
