<?xml version="1.0" encoding="UTF-8" standalone="no"?>
<!-- Created with Inkscape (http://www.inkscape.org/) -->

<svg
   version="1.1"
   id="svg212"
   width="2184.2412"
   height="398.66669"
   viewBox="0 0 2184.2412 398.66669"
   sodipodi:docname="Cogen_logo1.ai"
   xmlns:inkscape="http://www.inkscape.org/namespaces/inkscape"
   xmlns:sodipodi="http://sodipodi.sourceforge.net/DTD/sodipodi-0.dtd"
   xmlns="http://www.w3.org/2000/svg"
   xmlns:svg="http://www.w3.org/2000/svg">
  <defs
     id="defs216" />
  <sodipodi:namedview
     id="namedview214"
     pagecolor="#ffffff"
     bordercolor="#000000"
     borderopacity="0.25"
     inkscape:showpageshadow="2"
     inkscape:pageopacity="0.0"
     inkscape:pagecheckerboard="0"
     inkscape:deskcolor="#d1d1d1"
     showgrid="false" />
  <g
     id="g220"
     inkscape:groupmode="layer"
     inkscape:label="Page 1"
     transform="matrix(1.3333333,0,0,-1.3333333,-187.8792,919.33331)">
    <g
       id="g222"
       transform="translate(1110.8184,390.5)"
       style="fill:#d4d4d4;fill-opacity:1">
      <path
         d="M 0,0 H -298.986 V 299 L 0,298.985 v -75.192 l -225.31,0.015 V 73.676 h 151.634 v 38.979 h -75.817 v 73.676 H 0 Z"
         style="fill:#d4d4d4;fill-opacity:1;fill-rule:nonzero;stroke:none"
         id="path224" />
    </g>
    <path
       d="M 549.857,464.934 H 701.491 V 615.052 H 549.857 Z m 225.31,-73.676 H 476.181 v 297.469 h 298.986 z"
       style="fill:#d4d4d4;fill-opacity:1;fill-rule:nonzero;stroke:none"
       id="path226" />
    <g
       id="g228"
       transform="translate(438.3794,391.2583)"
       style="fill:#d4d4d4;fill-opacity:1">
      <path
         d="M 0,0 H -297.47 V 297.469 H 0 V 223.793 H -223.794 V 73.676 H 0 Z"
         style="fill:#d4d4d4;fill-opacity:1;fill-rule:nonzero;stroke:none"
         id="path230" />
    </g>
    <g
       id="g232"
       transform="translate(1703.8584,689.5)"
       style="fill:#d4d4d4;fill-opacity:1">
      <path
         d="M 0,0 V -188.908 L -147.012,0 h -75.228 v -299 h 75.228 v 185.415 L 0,-299 H 75.232 V 0 Z"
         style="fill:#d4d4d4;fill-opacity:1;fill-rule:nonzero;stroke:none"
         id="path234" />
    </g>
    <g
       id="g236"
       transform="translate(1444.9531,502.397)"
       style="fill:#d4d4d4;fill-opacity:1">
      <path
         d="m 0,0 v 75.231 h -222.316 v 36.665 H 0 v 75.192 H -297.47 V -111.897 H 0 v 75.192 H -222.316 V 0 Z"
         style="fill:#d4d4d4;fill-opacity:1;fill-rule:nonzero;stroke:none"
         id="path238" />
    </g>
  </g>
</svg>
