<?xml version="1.0" encoding="UTF-8" standalone="no"?>
<!-- Uploaded to: SVG Repo, www.svgrepo.com, Generator: SVG Repo Mixer Tools -->

<svg
   width="716.66669"
   height="716.66669"
   viewBox="0 0 21.500001 21.500001"
   fill="none"
   version="1.1"
   id="svg4"
   sodipodi:docname="stop-svgrepo-com.svg"
   xmlns:inkscape="http://www.inkscape.org/namespaces/inkscape"
   xmlns:sodipodi="http://sodipodi.sourceforge.net/DTD/sodipodi-0.dtd"
   xmlns="http://www.w3.org/2000/svg"
   xmlns:svg="http://www.w3.org/2000/svg">
  <defs
     id="defs8" />
  <sodipodi:namedview
     id="namedview6"
     pagecolor="#ffffff"
     bordercolor="#000000"
     borderopacity="0.25"
     inkscape:showpageshadow="2"
     inkscape:pageopacity="0.0"
     inkscape:pagecheckerboard="0"
     inkscape:deskcolor="#d1d1d1"
     showgrid="false" />
  <path
     fill-rule="evenodd"
     clip-rule="evenodd"
     d="m 10.6926,2.3841858e-7 h 0.1148 C 13.1158,-9.7615814e-6 14.9248,-1.9761581e-5 16.3363,0.18975024 c 1.4447,0.19424 2.5848,0.59958 3.4796,1.49438996 0.8948,0.89481 1.3001,2.03483 1.4944,3.47957 C 21.5,6.5751902 21.5,8.3842302 21.5,10.6926 v 0.1148 c 0,2.3084 0,4.1174 -0.1897,5.5289 -0.1943,1.4447 -0.5996,2.5848 -1.4944,3.4796 -0.8948,0.8948 -2.0349,1.3001 -3.4796,1.4944 C 14.9248,21.5 13.1158,21.5 10.8074,21.5 h -0.1148 c -2.3083698,0 -4.1174098,0 -5.5288898,-0.1897 -1.44474,-0.1943 -2.58476,-0.5996 -3.47957,-1.4944 C 0.78933024,18.9211 0.38399024,17.781 0.18975024,16.3363 -1.9761581e-5,14.9248 -9.7615814e-6,13.1158 2.3841858e-7,10.8074 V 10.6926 C -9.7615814e-6,8.3842302 -1.9761581e-5,6.5751902 0.18975024,5.1637102 c 0.19424,-1.44474 0.59958,-2.58476 1.49438996,-3.47957 0.89481,-0.89480996 2.03483,-1.30014996 3.47957,-1.49438996 C 6.5751902,-1.9761581e-5 8.3842302,-9.7615814e-6 10.6926,2.3841858e-7 Z M 5.3635802,1.6763702 c -1.27841,0.17188 -2.04913,0.49877 -2.61878,1.06843 -0.56966,0.56965 -0.89655,1.34037 -1.06843,2.61878 -0.17478,1.29998 -0.17637,3.0082 -0.17637,5.3864198 0,2.3782 0.00159,4.0864 0.17637,5.3864 0.17188,1.2784 0.49877,2.0491 1.06843,2.6188 0.56965,0.5697 1.34037,0.8966 2.61878,1.0684 C 6.6635602,19.9984 8.3717802,20 10.75,20 c 2.3782,0 4.0864,-0.0016 5.3864,-0.1764 1.2784,-0.1718 2.0491,-0.4987 2.6188,-1.0684 0.5697,-0.5697 0.8966,-1.3404 1.0684,-2.6188 C 19.9984,14.8364 20,13.1282 20,10.75 20,8.3717802 19.9984,6.6635602 19.8236,5.3635802 c -0.1718,-1.27841 -0.4987,-2.04913 -1.0684,-2.61878 -0.5697,-0.56966 -1.3404,-0.89655 -2.6188,-1.06843 -1.3,-0.17478 -3.0082,-0.17637 -5.3864,-0.17637 -2.3782198,0 -4.0864398,0.00159 -5.3864198,0.17637 z"
     fill="#1C274C"
     id="path2"
     style="fill:#d4d4d4;fill-opacity:1" />
</svg>
